<svg width="97" height="40" viewBox="0 0 97 40" fill="none" xmlns="http://www.w3.org/2000/svg">
<path fill-rule="evenodd" clip-rule="evenodd" d="M93.9376 5.51776C95.4019 5.51776 96.6792 4.39092 96.6792 2.75893C96.6792 1.16573 95.4019 0 93.9376 0C92.4355 0 91.1587 1.16573 91.1587 2.75893C91.1587 4.39092 92.4355 5.51776 93.9376 5.51776Z" fill="#5095EE"/>
<path d="M26.9496 9.39331V20.155C26.9496 22.0494 27.8785 23.3392 29.8575 23.3392C31.3769 23.3392 32.6983 22.4305 33.0773 20.8871L33.0885 20.8401V9.39331H38.1369V27.41H33.1289V25.7576C32.1192 26.886 30.3825 27.8131 28.2823 27.8131C24.284 27.8131 21.9878 25.2058 21.9423 21.282L21.9415 21.1627V9.39331H26.9496ZM9.04669 9.17473C10.5293 9.17473 11.9527 9.5501 13.2105 10.2269L13.2104 9.4032H18.1679V27.4688H13.2104L13.2105 26.5237C11.9527 27.1872 10.5293 27.55 9.04669 27.55C4.15657 27.55 0 23.7974 0 18.3623C0 13.0568 4.15657 9.17473 9.04669 9.17473ZM61.8425 8.99023C65.5209 8.99023 67.7348 11.5185 67.7788 15.519L67.7794 15.6407V27.41H62.7714V16.6887C62.7714 14.754 61.9233 13.4642 60.1866 13.4642C58.9075 13.4642 57.7471 14.2538 57.4101 15.7548L57.3999 15.8019V27.41H52.3515V16.6887C52.3515 14.754 51.5436 13.4642 49.807 13.4642C48.5279 13.4642 47.3279 14.2538 46.9902 15.7548L46.9799 15.8019V27.41H41.9718V9.39331H46.9799V10.8846C47.8684 9.75601 49.5243 8.99023 51.5436 8.99023C53.6842 8.99023 55.3805 9.95761 56.3902 11.2877C57.5614 9.99788 59.2981 8.99023 61.8425 8.99023ZM81.3073 8.99023C85.3457 8.99023 87.6423 11.5975 87.6878 15.5214L87.6886 15.6407V27.41H82.6805V16.6887C82.6805 14.7943 81.7112 13.5045 79.7322 13.5045C78.2128 13.5045 76.8914 14.4131 76.4732 15.9565L76.4608 16.0035V27.41H71.4528V9.39331H76.4608V11.0458C77.4302 9.91733 79.2072 8.99023 81.3073 8.99023ZM96.3704 9.39331V27.41H91.3619V9.39331H96.3704ZM9.01424 14.0679C6.72092 14.0679 4.77165 15.8825 4.77165 18.3623C4.77165 20.9028 6.72092 22.6568 9.01424 22.6568C11.2502 22.6568 13.1996 20.9028 13.1996 18.3623C13.1996 15.8825 11.2502 14.0679 9.01424 14.0679Z" fill="#121417"/>
<path d="M35.3215 32.6724V32.8533H35.9834V36.3693C35.9834 37.4259 35.6959 37.7232 35.0549 37.7232C34.6518 37.7232 34.5852 37.4111 34.5852 37.2496C34.5852 36.8652 34.5643 36.6301 34.2208 36.6301C33.8754 36.6301 33.835 36.9857 33.835 37.0942C33.835 37.5783 34.0463 37.949 34.9901 37.949C36.1151 37.949 36.7164 37.5617 36.7164 36.2763V32.8523L37.4 32.8533V32.6724L35.3215 32.6724ZM37.39 37.2515C37.3099 37.3329 37.2702 37.4295 37.2702 37.5467C37.2702 37.663 37.3099 37.7587 37.391 37.8358C37.4716 37.9164 37.5675 37.9554 37.6795 37.9554C37.7934 37.9554 37.8895 37.9164 37.9718 37.8358C38.0509 37.7587 38.0911 37.663 38.0911 37.5467C38.0911 37.4281 38.0509 37.3313 37.9718 37.2515C37.8925 37.1705 37.7968 37.1328 37.6795 37.1328C37.5636 37.1328 37.4679 37.1705 37.39 37.2515ZM42.006 37.2515C41.9269 37.3329 41.8887 37.4295 41.8887 37.5467C41.8887 37.663 41.9269 37.7587 42.006 37.8358C42.0903 37.9164 42.1835 37.9554 42.2955 37.9554C42.4113 37.9554 42.508 37.9164 42.5896 37.8358C42.6699 37.7587 42.7096 37.663 42.7096 37.5467C42.7096 37.4281 42.6699 37.3313 42.5901 37.2515C42.5092 37.1705 42.4123 37.1328 42.2955 37.1328C42.1811 37.1328 42.0849 37.1705 42.006 37.2515ZM38.8118 32.6728V32.8531H39.4097V36.864C39.4097 37.1793 39.3907 37.2613 39.3561 37.3526C39.3191 37.4545 39.2356 37.5349 39.1119 37.5872C39.0199 37.6269 38.8804 37.6477 38.6944 37.6528V37.8185H40.8854V37.6546C40.6997 37.6499 40.558 37.6282 40.4652 37.5945C40.3345 37.5418 40.2498 37.4645 40.2084 37.3594C40.1721 37.2693 40.1534 37.1897 40.1534 37.0313V35.6577L40.6955 35.6554C42.2702 35.6554 42.7127 35.0222 42.7127 34.1579C42.7127 33.2845 42.4411 32.6724 40.8467 32.6724L38.8118 32.6728ZM40.1534 32.8762L40.53 32.8711C41.7443 32.8711 42.0094 33.3802 42.0094 34.2053C42.0094 35.0356 41.532 35.4592 40.5689 35.4592H40.1534V32.8762ZM48.3968 32.6843C48.3786 32.7321 46.8538 36.6048 46.8538 36.6048L46.819 36.6279L46.7825 36.6048C46.7825 36.6048 45.1577 32.7321 45.1388 32.6843H43.7051V32.8502H44.3273V36.8332L44.314 37.1959C44.304 37.2917 44.2747 37.3772 44.2288 37.445C44.1803 37.5192 44.1014 37.5752 43.9989 37.6122C43.9312 37.6348 43.8305 37.6501 43.7051 37.653V37.8187H45.128V37.6552C45.007 37.6501 44.9544 37.6379 44.8836 37.6138C44.7792 37.5788 44.7008 37.5261 44.6489 37.4503C44.6027 37.3798 44.5727 37.2956 44.5623 37.1959L44.5464 36.8332V33.3929H44.63C44.63 33.3929 46.4699 37.7707 46.4891 37.8187H46.6427L48.3842 33.4415H48.428V36.9888C48.428 37.1405 48.4129 37.2577 48.3842 37.3486C48.3498 37.4547 48.2756 37.5349 48.1679 37.589C48.0881 37.6253 47.9664 37.6466 47.806 37.653V37.8187H49.7912V37.653C49.6328 37.645 49.5101 37.6233 49.4268 37.5852C49.3114 37.528 49.2367 37.445 49.2038 37.3391C49.1751 37.2465 49.1612 37.1335 49.1612 36.9888V32.8534L49.689 32.8482V32.6843L48.3968 32.6843ZM50.1505 36.0161C50.1505 37.8486 51.5493 37.9696 51.8513 37.9696C52.4492 37.9696 53.5826 37.5896 53.5826 35.9815C53.5826 34.7304 52.8576 34.0496 51.8752 34.0496C50.8154 34.0496 50.1505 34.7654 50.1505 36.0161ZM50.9417 36.0364C50.9417 35.0314 51.0031 34.2773 51.861 34.2773C52.7881 34.2773 52.7924 35.0576 52.7924 35.9731C52.7924 37.2885 52.5718 37.7423 51.861 37.7423C51.0644 37.7423 50.9417 37.3366 50.9417 36.0364ZM55.3484 34.876L55.2989 34.8742C55.2934 34.876 55.2076 34.309 55.1752 34.1419C54.9278 34.1419 53.9484 34.1395 53.9484 34.1395V34.3313H54.6122C54.6122 34.3313 54.6085 34.9057 54.6085 35.1126V36.872C54.6085 37.1239 54.5811 37.2996 54.5279 37.406C54.4598 37.5316 54.3077 37.5945 54.0558 37.5945H53.9484V37.8187H56.0042V37.5945H55.8933C55.6236 37.5945 55.5073 37.5349 55.4349 37.4157C55.3695 37.3107 55.3402 37.1328 55.3402 36.872V35.5526C55.3402 35.1077 55.6688 34.6012 56.0627 34.6012C56.4743 34.6012 56.4648 35.2477 56.9315 34.9876C57.1851 34.8462 57.1423 34.1054 56.3548 34.1054C55.721 34.1054 55.5234 34.4871 55.3484 34.876ZM61.7667 34.333C61.5319 34.5152 61.4407 34.6834 61.4407 34.9243C61.4407 35.0363 61.4702 35.1152 61.5319 35.1682C61.5939 35.2244 61.6665 35.2502 61.7556 35.2502C61.9599 35.2502 62.0749 35.1443 62.1173 34.8702C62.1486 34.667 62.1921 34.5512 62.2903 34.4453C62.3953 34.333 62.5592 34.2769 62.7809 34.2769C63.0387 34.2769 63.2211 34.3477 63.3234 34.4891C63.4171 34.6221 63.4669 34.8031 63.4669 35.0264V35.6434C62.8081 35.704 61.2531 35.8313 61.3222 37.0389C61.3481 37.5112 61.7569 37.926 62.2849 37.926C62.8687 37.926 63.2382 37.587 63.4891 37.3158C63.5293 37.5728 63.7634 37.8797 64.189 37.8797C64.6676 37.8797 64.9535 37.6406 64.9867 37.0426H64.8637C64.8313 37.3025 64.6737 37.4428 64.5439 37.4428C64.3238 37.4428 64.254 37.318 64.2377 37.1102L64.2246 36.6394V35.098C64.2246 34.7653 64.172 34.5416 63.9797 34.3457C63.7901 34.1497 63.4234 34.0493 62.8935 34.0493C62.3847 34.0493 62.0069 34.1452 61.7667 34.333ZM62.0417 36.8973C62.0417 36.2122 62.9624 35.8695 63.4669 35.8695V37.0533L63.4545 37.0825L63.4391 37.0974C63.0867 37.423 62.8179 37.5391 62.6212 37.5391C62.1173 37.5391 62.0417 37.1113 62.0417 36.8973ZM66.4335 34.8062L66.3676 34.8035L66.2387 34.1351L65.1213 34.1331V34.3248C65.3312 34.3338 65.681 34.3378 65.681 34.3378V36.8678C65.681 37.0643 65.666 37.2059 65.6375 37.2996C65.6077 37.4115 65.5364 37.4897 65.431 37.5349C65.3634 37.5646 65.2569 37.581 65.1213 37.5872V37.8187H66.898V37.5854C66.7193 37.5708 66.5989 37.5214 66.5346 37.4283C66.4652 37.3289 66.4335 37.158 66.4335 36.9081V35.9363C66.4335 35.5298 66.4313 35.1373 66.5674 34.8944C66.7141 34.6296 66.983 34.4836 67.2838 34.4836C67.5544 34.4836 67.6968 34.572 67.7861 34.747C67.859 34.8894 67.9061 35.3132 67.9061 35.6048L67.8974 36.8091C67.8974 37.0096 67.9222 37.1581 67.9061 37.2529C67.8861 37.3639 67.8368 37.4503 67.7514 37.5077C67.6892 37.5513 67.5916 37.5739 67.4664 37.5834V37.8187H69.1788V37.5872C68.9623 37.5728 68.8206 37.5192 68.7584 37.416C68.688 37.3107 68.6299 37.1337 68.6299 36.8696L68.6397 35.2025C68.6397 34.9616 68.608 34.7554 68.5191 34.5862C68.4293 34.4216 68.3032 34.2968 68.1463 34.2146C67.987 34.1331 67.8044 34.0928 67.6038 34.0928C66.8815 34.0928 66.5915 34.5423 66.4335 34.8062ZM60.7134 33.9009C60.6075 33.9355 60.5371 34.0314 60.4999 34.1937C60.4721 34.3433 60.4164 34.43 60.3421 34.4542C60.2678 34.4765 60.1847 34.4701 60.0858 34.436C59.9017 34.2614 59.5485 34.0496 58.9269 34.0496C57.9259 34.0496 57.4849 34.7763 57.4849 35.4394C57.4849 36.2155 57.7774 36.5913 58.4213 36.7296C58.4604 36.738 58.4604 36.7818 58.4265 36.7898C57.8772 36.9033 57.3905 37.067 57.3905 37.5989C57.3905 37.9195 57.5712 38.0952 57.8022 38.1914C58.0574 38.2971 58.416 38.3518 58.8662 38.36C59.2599 38.3644 59.5387 38.3786 59.7204 38.4008C59.9169 38.4236 60.0724 38.4808 60.1873 38.566C60.3056 38.6593 60.3682 38.7967 60.3682 38.9766C60.3682 39.2227 60.2391 39.4208 59.9817 39.5675C59.742 39.704 59.4146 39.7753 59.0073 39.7753C58.658 39.7753 58.3721 39.7363 58.1141 39.5726C57.9231 39.4518 57.8857 39.2148 57.9259 39.0439C57.9615 38.8711 57.9009 38.689 57.7044 38.6553C57.5964 38.6367 57.4603 38.6968 57.3975 38.7967C57.3386 38.8897 57.3177 39.0005 57.3177 39.1326C57.3177 39.5701 57.6494 39.7753 57.9029 39.8506C58.2893 39.9707 58.5458 39.9997 58.9012 39.9997C59.3724 39.9997 59.7552 39.9264 60.0289 39.785C60.3025 39.6441 60.4934 39.472 60.5951 39.2739C60.7025 39.0745 60.7538 38.8709 60.7538 38.6751C60.7538 38.4105 60.6968 38.1947 60.586 38.0361C60.2284 37.5347 59.7204 37.5989 58.5786 37.5433C58.0294 37.5433 57.9235 37.4423 57.9235 37.2702C57.9235 37.0178 58.127 36.9183 58.9223 36.794C59.7048 36.67 60.4343 36.3771 60.4343 35.4028C60.4343 35.1228 60.3699 34.8821 60.2923 34.7138C60.454 34.7506 60.6051 34.7506 60.7429 34.704C60.9009 34.6544 61.0033 34.5738 61.0627 34.4608C61.1222 34.3473 61.1355 34.2405 61.1027 34.1364C61.0503 33.9658 60.9607 33.8807 60.8314 33.8807C60.7953 33.8807 60.756 33.8875 60.7134 33.9009ZM58.2109 35.4394C58.2109 34.7552 58.445 34.2463 58.946 34.2463C59.5289 34.2463 59.6994 34.71 59.6994 35.4252C59.6994 36.4482 59.3835 36.582 58.946 36.582C58.4784 36.582 58.2109 36.409 58.2109 35.4394Z" fill="#121417"/>
<path d="M72.9841 37.9141C72.5198 37.9141 72.1646 37.7564 71.9186 37.4407C71.6723 37.1251 71.5493 36.6563 71.5493 36.034C71.5493 35.4074 71.67 34.9418 71.9115 34.6376C72.153 34.3334 72.5106 34.1812 72.9841 34.1812C73.1886 34.1812 73.3743 34.2027 73.5414 34.2458C73.7086 34.2891 73.8525 34.3378 73.9734 34.3924L73.8758 34.8692C73.7179 34.8192 73.5727 34.7796 73.4404 34.75C73.3081 34.7205 73.1698 34.7057 73.0259 34.7057C72.896 34.7057 72.7799 34.7227 72.6778 34.7566C72.5754 34.7908 72.4908 34.8542 72.4235 34.947C72.3561 35.0398 72.3051 35.1666 72.2702 35.3275C72.2355 35.4884 72.218 35.6978 72.218 35.9559V36.0647C72.218 36.3274 72.2355 36.5449 72.2702 36.717C72.3051 36.8891 72.3572 37.0262 72.427 37.1281C72.4966 37.2301 72.5812 37.3014 72.6812 37.3422C72.781 37.3829 72.896 37.4032 73.0259 37.4032C73.1931 37.4032 73.343 37.3817 73.4753 37.3385C73.6076 37.2954 73.7504 37.2398 73.9036 37.1717L74.0081 37.6449C73.8919 37.7093 73.748 37.7703 73.5763 37.8278C73.4044 37.8853 73.2071 37.9141 72.9841 37.9141Z" fill="#121417"/>
<path d="M75.9375 37.9141C75.4823 37.9141 75.1236 37.7541 74.8614 37.4339C74.599 37.1137 74.4678 36.6517 74.4678 36.0476C74.4678 35.4392 74.6012 34.976 74.8683 34.658C75.1352 34.3402 75.4918 34.1812 75.9375 34.1812C76.388 34.1812 76.7443 34.3378 77.0067 34.6512C77.2691 34.9646 77.4003 35.4233 77.4003 36.0272C77.4003 36.6403 77.2702 37.1081 77.0101 37.4305C76.7501 37.7531 76.3925 37.9141 75.9375 37.9141ZM75.9375 37.4305C76.0629 37.4305 76.1743 37.4078 76.2718 37.3623C76.3694 37.317 76.4517 37.2432 76.5192 37.141C76.5864 37.0388 76.6387 36.9038 76.6758 36.7356C76.7131 36.5677 76.7316 36.3588 76.7316 36.1089V36C76.7316 35.7411 76.7141 35.5265 76.6792 35.3563C76.6445 35.1859 76.5946 35.0509 76.5295 34.9509C76.4644 34.851 76.3821 34.7807 76.2824 34.7398C76.1824 34.6989 76.0674 34.6785 75.9375 34.6785C75.8074 34.6785 75.6925 34.6979 75.5928 34.7363C75.4928 34.775 75.4092 34.8443 75.342 34.9442C75.2746 35.044 75.2235 35.1757 75.1886 35.3392C75.154 35.5027 75.1365 35.7116 75.1365 35.9659V36.0818C75.1365 36.3361 75.155 36.5495 75.1923 36.722C75.2294 36.8947 75.2815 37.0331 75.3489 37.1376C75.4161 37.2421 75.4997 37.317 75.5997 37.3623C75.6994 37.4078 75.8121 37.4305 75.9375 37.4305Z" fill="#121417"/>
<path d="M81.0502 34.3242C81.1245 34.288 81.215 34.255 81.3218 34.2254C81.4287 34.196 81.5517 34.1812 81.6911 34.1812C81.9974 34.1812 82.2344 34.2697 82.4016 34.4468C82.5688 34.6239 82.6523 34.9123 82.6523 35.3119V37.8188H82.0114V35.2302C82.0114 35.0259 81.9662 34.8852 81.8757 34.8078C81.785 34.7307 81.6586 34.6921 81.4959 34.6921C81.338 34.6921 81.2046 34.717 81.0954 34.767C80.9864 34.817 80.8714 34.8805 80.7507 34.9578V37.8188H80.1098V35.2302C80.1098 35.0259 80.0622 34.8852 79.967 34.8078C79.8718 34.7307 79.7477 34.6921 79.5945 34.6921C79.4458 34.6921 79.3146 34.7148 79.2009 34.7602C79.0871 34.8056 78.9697 34.8669 78.8491 34.9442V37.8188H78.2084V34.2493H78.5983L78.8282 34.6921L79.1557 34.3242C79.2298 34.288 79.3194 34.255 79.4239 34.2254C79.5283 34.196 79.6524 34.1812 79.7963 34.1812C79.931 34.1812 80.0495 34.1937 80.1516 34.2187C80.2537 34.2436 80.3468 34.2789 80.4304 34.3242L80.688 34.7194L81.0502 34.3242Z" fill="#121417"/>
<path d="M84.6096 34.3038C84.6884 34.2721 84.7757 34.2436 84.8709 34.2187C84.9659 34.1937 85.0809 34.1812 85.2156 34.1812C85.6243 34.1812 85.9319 34.3378 86.1385 34.6512C86.3451 34.9646 86.4485 35.4278 86.4485 36.0409C86.4485 36.6403 86.3427 37.0842 86.1316 37.3725C85.9203 37.6611 85.6034 37.8052 85.1807 37.8052C84.9857 37.8052 84.8151 37.7735 84.6688 37.7098C84.5225 37.6462 84.3982 37.5759 84.2961 37.4986V38.9224H83.6554V34.2493H84.0453L84.2683 34.6785L84.6096 34.3038ZM84.5992 37.2943C84.722 37.3534 84.8672 37.3828 85.0344 37.3828C85.2852 37.3828 85.4732 37.2886 85.5986 37.1001C85.724 36.9118 85.7867 36.5904 85.7867 36.1362V35.9114C85.7867 35.6844 85.7716 35.4925 85.7415 35.3358C85.7113 35.1791 85.6658 35.0531 85.6057 34.9578C85.5452 34.8624 85.4687 34.7943 85.3759 34.7534C85.2828 34.7125 85.1762 34.6921 85.0553 34.6921C84.9114 34.6921 84.7791 34.7137 84.6583 34.7568C84.5376 34.8 84.4168 34.8601 84.2961 34.9373V37.1239C84.375 37.1785 84.476 37.2353 84.5992 37.2943Z" fill="#121417"/>
<path d="M88.949 35.3392C88.949 35.2484 88.9398 35.1644 88.9212 35.0872C88.9025 35.01 88.8712 34.9442 88.8271 34.8896C88.7829 34.8351 88.7237 34.792 88.6496 34.7602C88.5752 34.7285 88.48 34.7125 88.3639 34.7125C88.1967 34.7125 88.0248 34.7341 87.8484 34.7772C87.6719 34.8205 87.4839 34.876 87.2844 34.9442L87.1868 34.4604C87.3492 34.3924 87.5304 34.3288 87.7301 34.2697C87.9296 34.2108 88.1549 34.1812 88.4057 34.1812C88.8243 34.1812 89.1261 34.2891 89.3116 34.5048C89.4971 34.7205 89.5899 35.0713 89.5899 35.5572V37.233C89.5899 37.3283 89.6072 37.3919 89.6421 37.4236C89.677 37.4556 89.7336 37.4714 89.8127 37.4714H89.959L89.9799 37.7779C89.9426 37.8052 89.8905 37.8312 89.8233 37.8563C89.7558 37.8811 89.6735 37.8937 89.5759 37.8937C89.5195 37.8937 89.4633 37.8903 89.4068 37.8835C89.3504 37.8767 89.2963 37.8641 89.2446 37.8461L88.9839 37.4509L88.6784 37.7984C88.6091 37.8301 88.5233 37.8573 88.4216 37.8801C88.3197 37.9027 88.2041 37.9141 88.0746 37.9141C87.9358 37.9141 87.8027 37.896 87.6756 37.8597C87.5483 37.8232 87.4371 37.7643 87.3423 37.6826C87.2475 37.6008 87.1723 37.4952 87.1168 37.3658C87.0612 37.2363 87.0336 37.0763 87.0336 36.8855C87.0336 36.7039 87.0588 36.5483 87.1099 36.4189C87.1607 36.2895 87.2393 36.1816 87.3458 36.0954C87.4522 36.0091 87.5888 35.941 87.7553 35.891C87.9218 35.8411 88.1207 35.8024 88.3523 35.7752L88.949 35.7071L88.949 35.3392ZM88.949 36.0885L88.3947 36.1567C88.1314 36.184 87.9421 36.2452 87.8266 36.3406C87.7111 36.4359 87.6534 36.5994 87.6534 36.8311V36.8855C87.6534 37.0899 87.7042 37.2375 87.8057 37.3283C87.9074 37.4192 88.0623 37.4645 88.2702 37.4645C88.4455 37.4645 88.5864 37.4351 88.6927 37.376C88.7989 37.317 88.8844 37.2489 88.949 37.1717V36.0885Z" fill="#121417"/>
<path d="M91.6377 34.3242C91.7165 34.288 91.8107 34.255 91.9197 34.2254C92.0287 34.196 92.1554 34.1812 92.2993 34.1812C92.6058 34.1812 92.846 34.2697 93.0203 34.4468C93.1944 34.6239 93.2814 34.9123 93.2814 35.3119V37.8188H92.6407V35.2302C92.6407 35.0259 92.5918 34.8852 92.4944 34.8078C92.3969 34.7307 92.2667 34.6921 92.1043 34.6921C91.9416 34.6921 91.8025 34.7159 91.6864 34.7636C91.5702 34.8113 91.4449 34.876 91.3102 34.9577V37.8188H90.6695V34.2493H91.0594L91.2962 34.7057L91.6377 34.3242Z" fill="#121417"/>
<path d="M95.0088 37.7098L93.8316 34.2493H94.4935L95.1481 36.3338L95.3222 37.3692L95.5103 36.3338L96.1581 34.2493H96.7641L95.2457 38.9224H94.6257L95.0088 37.7098Z" fill="#121417"/>
<path d="M30.4088 35.3177C30.4088 35.2286 30.3993 35.1462 30.3803 35.0704C30.3611 34.9946 30.3291 34.93 30.2839 34.8764C30.2387 34.823 30.178 34.7807 30.1021 34.7495C30.026 34.7184 29.9285 34.7026 29.8096 34.7026C29.6384 34.7026 29.4623 34.7238 29.2816 34.7661C29.1009 34.8086 28.9083 34.8631 28.7041 34.93L28.6041 34.4552C28.7705 34.3884 28.956 34.3261 29.1605 34.2681C29.3648 34.2102 29.5956 34.1812 29.8524 34.1812C30.281 34.1812 30.5901 34.2871 30.7801 34.4988C30.97 34.7105 31.0651 35.0548 31.0651 35.5316V37.1763C31.0651 37.2699 31.0828 37.3323 31.1185 37.3635C31.1542 37.3948 31.2123 37.4103 31.2932 37.4103H31.443L31.4644 37.7112C31.4263 37.7379 31.3729 37.7635 31.304 37.7881C31.235 37.8125 31.1507 37.8248 31.0508 37.8248C30.993 37.8248 30.9354 37.8215 30.8776 37.8148C30.8198 37.8081 30.7644 37.7957 30.7115 37.7781L30.4445 37.3902L30.1317 37.7312C30.0606 37.7623 29.9728 37.7891 29.8687 37.8114C29.7643 37.8337 29.6459 37.8448 29.5133 37.8448C29.3712 37.8448 29.2349 37.8271 29.1047 37.7914C28.9743 37.7556 28.8605 37.6978 28.7634 37.6176C28.6663 37.5374 28.5893 37.4337 28.5324 37.3067C28.4755 37.1796 28.4473 37.0226 28.4473 36.8354C28.4473 36.6571 28.4731 36.5044 28.5254 36.3773C28.5774 36.2504 28.658 36.1445 28.7669 36.0598C28.8759 35.9752 29.0158 35.9084 29.1863 35.8593C29.3569 35.8103 29.5605 35.7723 29.7977 35.7456L30.4088 35.6787L30.4088 35.3177ZM30.4088 36.0531L29.8411 36.12C29.5715 36.1468 29.3776 36.2069 29.2593 36.3005C29.1411 36.3941 29.082 36.5545 29.082 36.7819V36.8354C29.082 37.0359 29.134 37.1808 29.2379 37.2699C29.3421 37.3591 29.5007 37.4036 29.7136 37.4036C29.8932 37.4036 30.0375 37.3747 30.1462 37.3167C30.255 37.2588 30.3426 37.1919 30.4088 37.1162V36.0531Z" fill="#121417"/>
</svg>
