<svg width="77" height="35" viewBox="0 0 77 35" fill="none" xmlns="http://www.w3.org/2000/svg">
<g id="logo">
<g id="MX LOGO White">
<path id="Fill 1" fill-rule="evenodd" clip-rule="evenodd" d="M40.2362 33.4237L44.6649 27.7595C44.7018 27.7223 44.7018 27.6483 44.7018 27.6115L40.7944 0.80832C40.7944 0.697051 40.6831 0.623047 40.5713 0.623047H35.4731C35.3987 0.623047 35.3238 0.660311 35.2868 0.734316L23.1177 25.3898C23.0433 25.5383 22.8196 25.5383 22.7452 25.3898L10.4643 0.734316C10.4274 0.660311 10.353 0.623047 10.2786 0.623047H5.14294C5.03109 0.623047 4.9567 0.697051 4.91977 0.80832L0.00728769 34.4603C-0.0301719 34.5716 0.0816792 34.6823 0.230462 34.6823H6.18495C6.29628 34.6823 6.37067 34.6083 6.40813 34.4971L9.38537 12.9141C9.4223 12.692 9.68294 12.6548 9.79479 12.8401L20.6243 34.5716C20.6612 34.6456 20.7356 34.6823 20.81 34.6823H25.0155C25.0899 34.6823 25.1643 34.6456 25.2012 34.5716L35.8825 13.1361C35.9938 12.9513 36.2544 12.9881 36.2914 13.2101L39.1942 34.127C39.2317 34.3123 39.4549 34.3858 39.5662 34.2383L40.2362 33.4237Z" fill="#28282A"/>
<g id="Group 5">
<mask id="mask0_4236_517" style="mask-type:alpha" maskUnits="userSpaceOnUse" x="42" y="0" width="35" height="35">
<path id="Clip 4" fill-rule="evenodd" clip-rule="evenodd" d="M42.6094 34.7194H76.7338V0.623047H42.6094V34.7194H42.6094Z" fill="white"/>
</mask>
<g mask="url(#mask0_4236_517)">
<path id="Fill 3" fill-rule="evenodd" clip-rule="evenodd" d="M69.0018 0.623047C68.9274 0.623047 68.89 0.660311 68.8161 0.697051L59.8469 12.396C59.7725 12.5068 59.5868 12.5068 59.5119 12.396L50.5063 0.697051C50.4688 0.660311 50.3944 0.623047 50.32 0.623047H42.8397C42.654 0.623047 42.5796 0.84506 42.654 0.956329L55.5301 17.5417C55.6045 17.6157 55.6045 17.727 55.5301 17.801L42.654 34.3863C42.5422 34.5343 42.654 34.7196 42.8397 34.7196H50.32C50.3944 34.7196 50.4319 34.6823 50.5063 34.6456L59.5119 22.9466C59.5868 22.8359 59.7725 22.8359 59.8469 22.9466L68.853 34.6456C68.89 34.6823 68.9644 34.7196 69.0393 34.7196H76.5191C76.7053 34.7196 76.7797 34.4976 76.7053 34.3863L63.8292 17.801C63.7543 17.727 63.7543 17.6157 63.8292 17.5417L76.7053 0.956329C76.7428 0.80832 76.6684 0.623047 76.4821 0.623047H69.0018Z" fill="#28282A"/>
</g>
</g>
</g>
</g>
</svg>
